<?xml version="1.0" encoding="utf-8"?><svg xml:space="preserve" viewBox="0 0 100 100" y="0" x="0" xmlns="http://www.w3.org/2000/svg" id="圖層_1" version="1.1" width="200px" height="200px" xmlns:xlink="http://www.w3.org/1999/xlink" style="width:100%;height:100%;background-size:initial;background-repeat-y:initial;background-repeat-x:initial;background-position-y:initial;background-position-x:initial;background-origin:initial;background-image:initial;background-color:rgb(255, 255, 255);background-clip:initial;background-attachment:initial;animation-play-state:paused" ><g class="ldl-scale" style="transform-origin:50% 50%;transform:rotate(0deg) scale(0.8, 0.8);animation-play-state:paused" ><path fill="#f8b26a" d="M17.417 42.375c2.07 3.267 5.02 5.902 8.661 7.381 7.967 3.235 16.68-.051 21.339-7.381h-30z" style="fill:rgb(248, 178, 106);animation-play-state:paused" ></path>
<path fill="#f8b26a" d="M52.084 55c4.143 7.914 13.305 11.693 21.619 8.481 4.159-1.607 7.398-4.693 9.381-8.481h-31z" style="fill:rgb(248, 178, 106);animation-play-state:paused" ></path>
<path d="M26.387 50.895l-7.87 21.669" stroke-miterlimit="10" stroke-linecap="round" stroke-width="3.5" stroke="#333" fill="none" style="stroke:rgb(51, 51, 51);animation-play-state:paused" ></path>
<path d="M10 69.471l17.034 6.186" stroke-miterlimit="10" stroke-linecap="round" stroke-width="3.5" stroke="#333" fill="none" style="stroke:rgb(51, 51, 51);animation-play-state:paused" ></path>
<path d="M58.717 10.496l-2.588 10.746" stroke-miterlimit="10" stroke-linecap="round" stroke-width="3.5" stroke="#333" fill="none" style="stroke:rgb(51, 51, 51);animation-play-state:paused" ></path>
<path d="M45.153 10.842l3.132 10.6" stroke-miterlimit="10" stroke-linecap="round" stroke-width="3.5" stroke="#333" fill="none" style="stroke:rgb(51, 51, 51);animation-play-state:paused" ></path>
<path d="M70.636 16.979l-7.614 8.012" stroke-miterlimit="10" stroke-linecap="round" stroke-width="3.5" stroke="#333" fill="none" style="stroke:rgb(51, 51, 51);animation-play-state:paused" ></path>
<path stroke-miterlimit="10" stroke-linecap="round" stroke-width="3.5" stroke="#333" fill="none" d="M26.202 50.828h0c-9.319-3.431-14.091-13.766-10.66-23.085l33.745 12.425c-3.431 9.318-13.766 14.09-23.085 10.66z" style="stroke:rgb(51, 51, 51);animation-play-state:paused" ></path>
<path d="M73.613 64.742l7.87 21.668" stroke-miterlimit="10" stroke-linecap="round" stroke-width="3.5" stroke="#333" fill="none" style="stroke:rgb(51, 51, 51);animation-play-state:paused" ></path>
<path d="M90 83.317l-17.034 6.187" stroke-miterlimit="10" stroke-linecap="round" stroke-width="3.5" stroke="#333" fill="none" style="stroke:rgb(51, 51, 51);animation-play-state:paused" ></path>
<path stroke-miterlimit="10" stroke-linecap="round" stroke-width="3.5" stroke="#333" fill="none" d="M73.798 64.674h0c9.319-3.431 14.091-13.766 10.66-23.085L50.713 54.014c3.431 9.318 13.766 14.091 23.085 10.66z" style="stroke:rgb(51, 51, 51);animation-play-state:paused" ></path>
<path d="M16.137 41.589H48.69" stroke-miterlimit="10" stroke-width="3.5" stroke="#333" fill="none" style="stroke:rgb(51, 51, 51);animation-play-state:paused" ></path>
<path d="M50.713 54.014h33.773" stroke-miterlimit="10" stroke-width="3.5" stroke="#333" fill="none" style="stroke:rgb(51, 51, 51);animation-play-state:paused" ></path>
<metadata xmlns:d="https://loading.io/stock/" style="animation-play-state:paused" ><d:name style="animation-play-state:paused" >cheers</d:name>
<d:tags style="animation-play-state:paused" >cheers,drink,toast,party,bar</d:tags>
<d:license style="animation-play-state:paused" >by</d:license>
<d:slug style="animation-play-state:paused" >sry5hi</d:slug></metadata></g><!-- generated by https://loading.io/ --></svg>